{"title":"Arrow S01E11 HDTV x264 AAC-V3nom","uid":8063399,"size":125897936,"categoryP":"video","categoryS":"tv_shows","magnet":"?xt=urn:btih:abf7de41ba64beb8d1469fb6e1981de36767eecb&amp;dn=Arrow+S01E11+HDTV+x264+AAC-V3nom&amp;tr=udp%3A%2F%2Ftracker.openbittorrent.com%3A80&amp;tr=udp%3A%2F%2Fopen.demonii.com%3A1337&amp;tr=udp%3A%2F%2Ftracker.coppersurfer.tk%3A6969&amp;tr=udp%3A%2F%2Fexodus.desync.com%3A6969","seeders":1,"leechers":1,"uploader":"V3nom","files":-1,"time":1359130307,"description":"[img]http://img706.imageshack.us/img706/5860/arroww.jpg[/img]\n\n[size=200][color=black]TV INFO[/color][/size]\n\n[code]Arrow S01E11 HDTV x264 AAC-V3nom\n\nFormat                                   : MPEG-4\nFormat profile                           : Base Media / Version 2\nCodec ID                                 : mp42\nFile size                                : 120 MiB\nDuration                                 : 42mn 5s\nOverall bit rate mode                    : Variable\nOverall bit rate                         : 398 Kbps\nEncoded date                             : UTC 2013-01-25 07:47:14\nTagged date                              : UTC 2013-01-25 08:01:49\n\nVideo\nID                                       : 1\nFormat                                   : AVC\nFormat/Info                              : Advanced Video Codec\nFormat profile                           : &lt;a class=&quot;__cf_email__&quot; href=&quot;/cdn-cgi/l/email-protection&quot; data-cfemail=&quot;b5f8d4dcdbf5f9879b84&quot;&gt;[email&amp;#160;protected]&lt;/a&gt;&lt;script cf-hash='f9e31' type=&quot;text/javascript&quot;&gt;\n/* &lt;![CDATA[ */!function(){try{var t=&quot;currentScript&quot;in document?document.currentScript:function(){for(var t=document.getElementsByTagName(&quot;script&quot;),e=t.length;e--;)if(t[e].getAttribute(&quot;cf-hash&quot;))return t[e]}();if(t&amp;&amp;t.previousSibling){var e,r,n,i,c=t.previousSibling,a=c.getAttribute(&quot;data-cfemail&quot;);if(a){for(e=&quot;&quot;,r=parseInt(a.substr(0,2),16),n=2;a.length-n;n+=2)i=parseInt(a.substr(n,2),16)^r,e+=String.fromCharCode(i);e=document.createTextNode(e),c.parentNode.replaceChild(e,c)}}}catch(u){}}();/* ]]&gt; */&lt;/script&gt;\nFormat settings, CABAC                   : Yes\nFormat settings, ReFrames                : 4 frames\nCodec ID                                 : avc1\nCodec ID/Info                            : Advanced Video Coding\nDuration                                 : 42mn 4s\nBit rate mode                            : Variable\nBit rate                                 : 299 Kbps\nWidth                                    : 640 pixels\nHeight                                   : 272 pixels\nDisplay aspect ratio                     : 16:9\nFrame rate mode                          : Variable\nFrame rate                               : 23.976 fps\nMinimum frame rate                       : 23.974 fps\nMaximum frame rate                       : 23.981 fps\nColor space                              : YUV\nChroma subsampling                       : 4:2:0\nBit depth                                : 8 bits\nScan type                                : Progressive\nBits/(Pixel*Frame)                       : 0.072\nStream size                              : 89.4 MiB (75%)\nWriting library                          : x264 core 112\n\nAudio\nID                                       : 2\nFormat                                   : AAC\nFormat/Info                              : Advanced Audio Codec\nFormat profile                           : LC\nCodec ID                                 : 40\nDuration                                 : 42mn 5s\nBit rate mode                            : Variable\nBit rate                                 : 96.0 Kbps\nMaximum bit rate                         : 141 Kbps\nChannel(s)                               : 2 channels\nChannel positions                        : Front: L R\nSampling rate                            : 48.0 KHz\nCompression mode                         : Lossy\nDelay relative to video                  : 83ms\nStream size                              : 28.9 MiB (24%)\nEncoded date                             : UTC 2013-01-25 07:47:14\nTagged date                              : UTC 2013-01-25 08:01:47[/code]\n\n[size=200][color=black]SOURCE[/color][/size]\n\n[code]Arrow S01E11 HDTV x264-LOL[ettv](THANKS)[/code]\n\n[size=200][color=black]SCREENSHOTS[/color][/size]\n\n[img]http://img713.imageshack.us/img713/9899/arrows01e11hdtvx264aacv.jpg[/img]\n\n[img]http://kastatic.com/i2/users/133df62bbf28e62494bb17fe11078f1a.gif[/img][img]http://kastatic.com/i2/users/133df62bbf28e62494bb17fe11078f1a.gif[/img]\n","torrent":{"xt":"urn:btih:abf7de41ba64beb8d1469fb6e1981de36767eecb","amp;dn":"Arrow+S01E11+HDTV+x264+AAC-V3nom","amp;tr":["udp%3A%2F%2Ftracker.openbittorrent.com%3A80","udp%3A%2F%2Fopen.demonii.com%3A1337","udp%3A%2F%2Ftracker.coppersurfer.tk%3A6969","udp%3A%2F%2Fexodus.desync.com%3A6969"],"infoHash":"abf7de41ba64beb8d1469fb6e1981de36767eecb","infoHashBuffer":{"type":"Buffer","data":[171,247,222,65,186,100,190,184,209,70,159,182,225,152,29,227,103,103,238,203]},"announce":[],"urlList":[]}}